<svg width="75" height="27" viewBox="0 0 75 27" fill="none" xmlns="http://www.w3.org/2000/svg">
<path d="M0 0.571429H2.14286V2.71429H0V0.571429ZM2.14286 0.571429H4.28571V2.71429H2.14286V0.571429ZM2.14286 2.71429H4.28571V4.85714H2.14286V2.71429ZM2.14286 4.85714H4.28571V7H2.14286V4.85714ZM2.14286 7H4.28571V9.14286H2.14286V7ZM0 7H2.14286V9.14286H0V7ZM0 4.85714H2.14286V7H0V4.85714ZM0 2.71429H2.14286V4.85714H0V2.71429ZM0 9.14286H2.14286V11.2857H0V9.14286ZM0 11.2857H2.14286V13.4286H0V11.2857ZM0 13.4286H2.14286V15.5714H0V13.4286ZM2.14286 11.2857H4.28571V13.4286H2.14286V11.2857ZM2.14286 9.14286H4.28571V11.2857H2.14286V9.14286ZM2.14286 13.4286H4.28571V15.5714H2.14286V13.4286ZM2.14286 15.5714H4.28571V17.7143H2.14286V15.5714ZM0 17.7143H2.14286V19.8571H0V17.7143ZM0 15.5714H2.14286V17.7143H0V15.5714ZM0 19.8571H2.14286V22H0V19.8571ZM2.14286 19.8571H4.28571V22H2.14286V19.8571ZM2.14286 17.7143H4.28571V19.8571H2.14286V17.7143ZM4.28571 19.8571H6.42857V22H4.28571V19.8571ZM6.42857 19.8571H8.57143V22H6.42857V19.8571ZM8.57143 19.8571H10.7143V22H8.57143V19.8571ZM8.57143 17.7143H10.7143V19.8571H8.57143V17.7143ZM6.42857 17.7143H8.57143V19.8571H6.42857V17.7143ZM4.28571 17.7143H6.42857V19.8571H4.28571V17.7143ZM4.28571 0.571429H6.42857V2.71429H4.28571V0.571429ZM6.42857 0.571429H8.57143V2.71429H6.42857V0.571429ZM8.57143 0.571429H10.7143V2.71429H8.57143V0.571429ZM10.7143 0.571429H12.8571V2.71429H10.7143V0.571429ZM8.57143 2.71429H10.7143V4.85714H8.57143V2.71429ZM6.42857 2.71429H8.57143V4.85714H6.42857V2.71429ZM4.28571 2.71429H6.42857V4.85714H4.28571V2.71429ZM4.28571 11.2857H6.42857V13.4286H4.28571V11.2857ZM6.42857 9.14286H8.57143V11.2857H6.42857V9.14286ZM4.28571 9.14286H6.42857V11.2857H4.28571V9.14286ZM6.42857 11.2857H8.57143V13.4286H6.42857V11.2857ZM10.7143 2.71429H12.8571V4.85714H10.7143V2.71429ZM10.7143 17.7143H12.8571V19.8571H10.7143V17.7143ZM10.7143 19.8571H12.8571V22H10.7143V19.8571ZM8.57143 9.14286H10.7143V11.2857H8.57143V9.14286ZM8.57143 11.2857H10.7143V13.4286H8.57143V11.2857Z" fill="#FF0000"/>
<path d="M27.8571 22H25.7143V19.8571H27.8571V22ZM27.8571 19.8571H25.7143V17.7143H27.8571V19.8571ZM25.7143 19.8571H23.5714V17.7143H25.7143V19.8571ZM23.5714 22H21.4286V19.8571H23.5714V22ZM21.4286 22H19.2857V19.8571H21.4286V22ZM19.2857 22H17.1429V19.8571H19.2857V22ZM19.2857 19.8571H17.1429V17.7143H19.2857V19.8571ZM21.4286 19.8571H19.2857V17.7143H21.4286V19.8571ZM17.1429 19.8571H15V17.7143H17.1429V19.8571ZM17.1429 17.7143H15V15.5714H17.1429V17.7143ZM17.1429 9.14286H15V7H17.1429V9.14286ZM19.2857 9.14286H17.1429V7H19.2857V9.14286ZM19.2857 17.7143H17.1429V15.5714H19.2857V17.7143ZM21.4286 9.14286H19.2857V7H21.4286V9.14286ZM19.2857 7H17.1429V4.85714H19.2857V7ZM21.4286 7H19.2857V4.85714H21.4286V7ZM23.5714 7H21.4286V4.85714H23.5714V7ZM25.7143 7H23.5714V4.85714H25.7143V7ZM27.8571 7H25.7143V4.85714H27.8571V7ZM27.8571 9.14286H25.7143V7H27.8571V9.14286ZM25.7143 9.14286H23.5714V7H25.7143V9.14286ZM27.8571 11.2857H25.7143V9.14286H27.8571V11.2857ZM30 9.14286H27.8571V7H30V9.14286ZM30 11.2857H27.8571V9.14286H30V11.2857ZM30 13.4286H27.8571V11.2857H30V13.4286ZM30 15.5714H27.8571V13.4286H30V15.5714ZM30 17.7143H27.8571V15.5714H30V17.7143ZM30 19.8571H27.8571V17.7143H30V19.8571ZM27.8571 17.7143H25.7143V15.5714H27.8571V17.7143ZM27.8571 15.5714H25.7143V13.4286H27.8571V15.5714ZM27.8571 13.4286H25.7143V11.2857H27.8571V13.4286ZM23.5714 9.14286H21.4286V7H23.5714V9.14286ZM23.5714 19.8571H21.4286V17.7143H23.5714V19.8571ZM27.8571 19.8571H30V22H27.8571V19.8571ZM23.5714 11.2857H25.7143V13.4286H23.5714V11.2857ZM21.4286 11.2857H23.5714V13.4286H21.4286V11.2857ZM19.2857 11.2857H21.4286V13.4286H19.2857V11.2857ZM17.1429 11.2857H19.2857V13.4286H17.1429V11.2857ZM15 13.4286H17.1429V15.5714H15V13.4286ZM17.1429 13.4286H19.2857V15.5714H17.1429V13.4286ZM23.5714 13.4286H25.7143V15.5714H23.5714V13.4286ZM21.4286 13.4286H23.5714V15.5714H21.4286V13.4286ZM19.2857 13.4286H21.4286V15.5714H19.2857V13.4286Z" fill="#FF7B00"/>
<path d="M40.7199 17.7143H42.8627V19.8571H40.7199V17.7143ZM40.7199 19.8571H42.8627V22H40.7199V19.8571ZM38.577 19.8571H40.7199V22H38.577V19.8571ZM38.577 17.7143H40.7199V19.8571H38.577V17.7143ZM36.4342 19.8571H38.577V22H36.4342V19.8571ZM36.4342 17.7143H38.577V19.8571H36.4342V17.7143ZM34.2913 17.7143H36.4342V19.8571H34.2913V17.7143ZM34.2913 15.5714H36.4342V17.7143H34.2913V15.5714ZM34.2913 13.4286H36.4342V15.5714H34.2913V13.4286ZM34.2913 11.2857H36.4342V13.4286H34.2913V11.2857ZM34.2913 9.14286H36.4342V11.2857H34.2913V9.14286ZM34.2913 7H36.4342V9.14286H34.2913V7ZM36.4342 13.4286H38.577V15.5714H36.4342V13.4286ZM36.4342 15.5714H38.577V17.7143H36.4342V15.5714ZM36.4342 11.2857H38.577V13.4286H36.4342V11.2857ZM36.4342 9.14286H38.577V11.2857H36.4342V9.14286ZM36.4342 0.571429H38.577V2.71429H36.4342V0.571429ZM36.4342 2.71429H38.577V4.85714H36.4342V2.71429ZM36.4342 4.85714H38.577V7H36.4342V4.85714ZM36.4342 7H38.577V9.14286H36.4342V7ZM34.2913 4.85714H36.4342V7H34.2913V4.85714ZM32.1484 7H34.2913V9.14286H32.1484V7ZM38.577 7H40.7199V9.14286H38.577V7ZM40.7199 7H42.8627V9.14286H40.7199V7ZM34.2913 2.71429H36.4342V4.85714H34.2913V2.71429ZM32.1484 9.14286H34.2913V11.2857H32.1484V9.14286ZM38.577 9.14286H40.7199V11.2857H38.577V9.14286ZM40.7199 9.14286H42.8627V11.2857H40.7199V9.14286Z" fill="#DFEB00"/>
<path d="M45 7H47.1429V9.14286H45V7ZM47.1429 7H49.2857V9.14286H47.1429V7ZM49.2857 7H51.4286V9.14286H49.2857V7ZM51.4286 7H53.5714V9.14286H51.4286V7ZM53.5714 7H55.7143V9.14286H53.5714V7ZM55.7143 7H57.8571V9.14286H55.7143V7ZM57.8571 7H60V9.14286H57.8571V7ZM57.8571 4.85714H60V7H57.8571V4.85714ZM55.7143 4.85714H57.8571V7H55.7143V4.85714ZM53.5714 4.85714H55.7143V7H53.5714V4.85714ZM51.4286 4.85714H53.5714V7H51.4286V4.85714ZM49.2857 4.85714H51.4286V7H49.2857V4.85714ZM47.1429 4.85714H49.2857V7H47.1429V4.85714ZM45 4.85714H47.1429V7H45V4.85714ZM57.8571 9.14286H60V11.2857H57.8571V9.14286ZM55.7143 9.14286H57.8571V11.2857H55.7143V9.14286ZM53.5714 9.14286H55.7143V11.2857H53.5714V9.14286ZM53.5714 11.2857H55.7143V13.4286H53.5714V11.2857ZM55.7143 11.2857H57.8571V13.4286H55.7143V11.2857ZM51.4286 11.2857H53.5714V13.4286H51.4286V11.2857ZM53.5714 13.4286H55.7143V15.5714H53.5714V13.4286ZM51.4286 13.4286H53.5714V15.5714H51.4286V13.4286ZM49.2857 13.4286H51.4286V15.5714H49.2857V13.4286ZM49.2857 15.5714H51.4286V17.7143H49.2857V15.5714ZM47.1429 15.5714H49.2857V17.7143H47.1429V15.5714ZM51.4286 15.5714H53.5714V17.7143H51.4286V15.5714ZM45 17.7143H47.1429V19.8571H45V17.7143ZM47.1429 17.7143H49.2857V19.8571H47.1429V17.7143ZM49.2857 17.7143H51.4286V19.8571H49.2857V17.7143ZM51.4286 17.7143H53.5714V19.8571H51.4286V17.7143ZM53.5714 17.7143H55.7143V19.8571H53.5714V17.7143ZM55.7143 17.7143H57.8571V19.8571H55.7143V17.7143ZM55.7143 19.8571H57.8571V22H55.7143V19.8571ZM57.8571 19.8571H60V22H57.8571V19.8571ZM57.8571 17.7143H60V19.8571H57.8571V17.7143ZM53.5714 19.8571H55.7143V22H53.5714V19.8571ZM51.4286 19.8571H53.5714V22H51.4286V19.8571ZM49.2857 19.8571H51.4286V22H49.2857V19.8571ZM47.1429 19.8571H49.2857V22H47.1429V19.8571ZM45 19.8571H47.1429V22H45V19.8571Z" fill="#11FF00"/>
<path d="M62.1484 4.85714H64.2913V7H62.1484V4.85714ZM64.2913 4.85714H66.4342V7H64.2913V4.85714ZM64.2913 7H66.4342V9.14286H64.2913V7ZM64.2913 9.14286H66.4342V11.2857H64.2913V9.14286ZM64.2913 11.2857H66.4342V13.4286H64.2913V11.2857ZM62.1484 9.14286H64.2913V11.2857H62.1484V9.14286ZM62.1484 7H64.2913V9.14286H62.1484V7ZM62.1484 11.2857H64.2913V13.4286H62.1484V11.2857ZM62.1484 13.4286H64.2913V15.5714H62.1484V13.4286ZM64.2913 13.4286H66.4342V15.5714H64.2913V13.4286ZM64.2913 15.5714H66.4342V17.7143H64.2913V15.5714ZM66.4342 15.5714H68.577V17.7143H66.4342V15.5714ZM66.4342 17.7143H68.577V19.8571H66.4342V17.7143ZM68.577 17.7143H70.7199V19.8571H68.577V17.7143ZM70.7199 17.7143H72.8627V19.8571H70.7199V17.7143ZM70.7199 15.5714H72.8627V17.7143H70.7199V15.5714ZM70.7199 13.4286H72.8627V15.5714H70.7199V13.4286ZM72.8627 13.4286H75.0056V15.5714H72.8627V13.4286ZM72.8627 15.5714H75.0056V17.7143H72.8627V15.5714ZM72.8627 11.2857H75.0056V13.4286H72.8627V11.2857ZM70.7199 11.2857H72.8627V13.4286H70.7199V11.2857ZM70.7199 4.85714H72.8627V7H70.7199V4.85714ZM72.8627 4.85714H75.0056V7H72.8627V4.85714ZM72.8627 7H75.0056V9.14286H72.8627V7ZM72.8627 9.14286H75.0056V11.2857H72.8627V9.14286ZM70.7199 7H72.8627V9.14286H70.7199V7ZM70.7199 9.14286H72.8627V11.2857H70.7199V9.14286ZM68.577 19.8571H70.7199V22H68.577V19.8571ZM66.4342 19.8571H68.577V22H66.4342V19.8571ZM66.4342 22H68.577V24.1429H66.4342V22ZM64.2913 22H66.4342V24.1429H64.2913V22ZM64.2913 19.8571H66.4342V22H64.2913V19.8571ZM64.2913 24.1429H66.4342V26.2857H64.2913V24.1429ZM62.1484 24.1429H64.2913V26.2857H62.1484V24.1429ZM62.1484 22H64.2913V24.1429H62.1484V22ZM68.577 15.5714H70.7199V17.7143H68.577V15.5714ZM66.4342 13.4286H68.577V15.5714H66.4342V13.4286Z" fill="#003CFF"/>
</svg>
